<?xml version="1.0" encoding="UTF-8"?>
<svg id="Capa_2" data-name="Capa 2" xmlns="http://www.w3.org/2000/svg" viewBox="0 0 841.17 842.19">
  <defs>
    <style>
      .cls-1 {
        fill: #5cad4a;
      }
    </style>
  </defs>
  <g id="Capa_1-2" data-name="Capa 1">
    <path class="cls-1" d="M29.02,433.93v-60c3.33,6.33,4.91,13.35,7.46,20,4.48,11.68,9.56,24.37,10.45,37,.82,11.72-4.66,25.97-.44,37,2.58,6.74,7.67,11.82,11.19,18,1.99,3.5,2.94,8.24,5.85,11.1,2.79,2.74,6.54,4.49,9.49,7.09,8.72,7.67,15.71,17.23,17.9,28.82,1.78,9.4,1.41,19.64-.57,29-1.72,8.13-5.18,15.48-4.15,24,1.61,13.24,13.35,23.14,20,34,5.23,8.54,9.19,17.49,12.29,27,1.71,5.25,1.95,11.38,5.17,16,5.14,7.37,15.27,12.52,23.35,16,7.68-16.51-2.98-32.29-8-48,14.76,17.06,28.4,34.45,45,49.91,27.03,25.18,59.03,45.85,92,62.34,13.17,6.58,26.8,14.69,41,18.75-5.67,7.51-11,4.57-19,5.07-2.96,.19-6.2,1.51-6.29,4.95-.1,3.85,3.75,8.77,6.61,11.01,8.46,6.63,20.83,10.42,30.67,14.55,18.95,7.95,38.42,15.46,56,26.23,5.89,3.61,11.59,7.57,17,11.86,2.63,2.08,5.56,5.84,9,6.5,4.04,.77,8.14-3.71,12-4.64,7.94-1.91,16.28,2.06,24-.17,1.74-.5,3.46-1.31,4.96-2.33,13.41-9.14-5.32-24.97-6.74-36.03-.68-5.32,5.82-16.15,.35-19.82-5.46-3.66-15.65,5.51-21.57,6.49-12.18,2.03-23.3-5.94-35-7.67-.06,6.8-1.51,14.25-8.02,17.9-10.64,5.96-29.28-6.29-33.45-15.9-.96-2.22-1.42-4.58-1.48-7-.1-4.47,1.3-11.78,6.96-12.04,3.47-.15,6.86,2.4,9.98,3.57,3.57,1.35,9.39,2.13,8.55-3.55-1.81-12.16-19.05-14.1-26.02-22.15-2.64-3.05-6.24-8.5-4.74-12.74,4.82-13.61,18.04-.04,24.21,2.9,3.11,1.47,6.75,.89,10,1.96,6.71,2.23,12.99,5.24,20,6.59,28.6,5.48,55.29-.16,82-10.74,10.88-4.31,21.54-9.32,32-14.55,3.58-1.79,8.93-5.89,12.77-2.83,5.04,4.02,2.75,10.93,.19,15.58-6.76,12.27-14.56,23.99-21.76,36-2.84,4.73-9.57,16.41,.01,19.21,2.73,.8,6.25-1.03,8.79-1.88,5.61-1.87,11.17-3.66,17-4.72,20.98-3.81,43.55-4.46,64-10.49,8.66-2.55,12.83-11.52,22-13.59,10.52-2.38,17.29,7.77,27,7.36,10.56-.45,20.17-5.89,31-5.89,4.78,0,9.28,.07,12.57,4.11,9.39,11.56-12.18,14.31-16.92,19.32-2.26,2.38-2.86,5.84-4.64,8.53-2.05,3.09-5.72,4.31-7.73,7.31-4.18,6.25-5.98,13.68-10.79,19.73-5.16,6.48-12.37,8.94-18.48,14,21.08,10.32,47.58-5.49,68-10.84,8.6-2.26,18.44-1.37,25.98-6.81,3.41-2.46,4.89-5.96,7.51-9.06,4.18-4.97,9.91-10.5,15.51-13.81,3.49-2.06,7.11-2.92,11-1.49,2.85,1.05,5.77,3.83,9,2.76,4.23-1.41,7.62-6.51,11-9.29,5.85-4.79,12.57-8.51,19-12.46-5.93-2.49-17.77-1.97-24-.39-4.73,1.19-9.08,3.89-14,4.28-7.05,.57-11.91-4.84-19-4.89-5.75-.04-22.18-.35-17.72-10.96,2.75-6.53,12.21-7.86,16.58-13.14,5.22-6.32,11.64-15.48,20.14-17.48,11.03-2.59,14.79,11.95,26,7.77,23.08-8.61,40.73-26.6,53.58-47.19,3.37-5.41,15.3-22.33,3.41-25.56-7.75-2.1-18.04,7.56-24.98,10.56-8.28,3.58-17.48,7.32-23.7,14.09-5.03,5.47-6.58,12.7-12.32,17.7-5.84,5.09-12.94,6.15-19.98,8.62-8.63,3.01-14.61,5.81-24,5.58-8.26-.21-16.25-3.43-24-5.99-8.19-2.7-16.3-4.5-20.54-13-4.78-9.57,10.11-22.62,.4-30.44-3.38-2.71-8.85-3.59-12.85-5.16-3.25-1.27-6.44-2.53-10-2.28-14.3,1.01-13.1,22.58-29,22.8-7.6,.1-15.44-1.99-23-2.75-23.15-2.32-46.78-5.49-70-6.19-8.3-.24-13.44-7.94-22-4.85-5.67,2.05-10.4,6.18-16,8.39-2.97,1.17-6.8,.82-9.49,2.51-5.4,3.4-8.18,8.9-14.51,11.49-11.36,4.65-25.74,3.15-35.94,10.19-4.95,3.42-4.47,8.99-5.98,14.29-2.38,8.33-9.05,14.68-18.08,14.54-10.53-.16-23.43-5.05-27.44-15.54-2.38-6.23,2.15-16.21-5.58-19.26-5.3-2.09-11,1.21-15.98,2.69-6.28,1.86-12.73,1.98-19-.02-23.45-7.52-30.14-32.84-48-46.89-4.23-3.33-8.91-5.95-14-7.68-4-1.36-8.52-1.82-11.96-4.41-5.29-3.98-7.6-10.22-9.04-16.43-2.18,.88-4.59,2.26-7,2.22-6.5-.12-10.4-8.01-14.17-12.22-4.43-4.94-9.83-9.66-15.83-12.6-5.12-2.52-11.29-4.44-17-2.9-11.62,3.14-22.01,12.24-34,3.85-2.85-1.99-5.36-4.61-7.47-7.35-9.08-11.76-10.22-27.13-.85-38.98,3-3.79,7.32-7.66,12.32-8.31,8.24-1.07,16.05,7.01,23,10.29-.13-15.78-11.13-29.57-18.22-43-3.4-6.45-6.38-12.97-8.35-20-2.71-9.65-3.27-17.45-9.2-26-8.77-12.66-22.33-20.85-31.7-33-5.88-7.63-9.31-17.87-12.09-27-6.99-22.93-10.72-47.12-7-71,1.43-9.12,3.08-18.06,5.45-27,3.21-12.14,6.71-20.67,2.12-33-7.93,6.07-13.61,16.26-18.22,25-12.22,23.2-18.02,49.45-22.78,75-3.56-7.61-6.4-15.52-10.26-23-6.61-12.81-14.1-25.3-15.57-40-1.1-11,2.24-22.6,5.49-33,4.18-13.41,8.9-26.67,13.34-40,2.41-7.23,4.43-14.56,6.11-22,1.12-4.98,1.1-9.57,4-14,5.17-7.89,13.78-13.51,19.68-21,9.65-12.25,16.92-26.06,25.54-39,4.3-6.45,13.46-14.21,14.52-22,.76-5.54-1.78-9.97-7.85-8.36-2.46,.65-4.69,2.02-7,3.05-7.96,3.55-28.1,8.68-27.48-6.69,.19-4.81,3.96-9.17,6.48-13,3.64-5.54,7.25-11.81,9.67-18,7.12-18.25,7.11-39.01,19.85-55,9.3-11.66,24.79-13.24,38.48-15.44,5.71-.92,11.19-2.44,17-2.56-7.04-3.38-14.59-1.36-22-1.04-9.77,.43-18.83,.91-28,4.92-17.61,7.69-32.35,24.77-47,36.87-8.09,6.68-16.36,13.26-25,19.22-4.8,3.31-11.85,6.36-15.26,11.21-3.75,5.33-1.01,13.73-2.07,19.82-1.85,10.63-7.48,21.77-11.01,32-5.69,16.44-11.59,32.84-18.06,49-3.65,9.13-9.02,18.34-11.08,28-3.52,16.49,1.87,32.59,.31,49-2.32,24.35-10.88,47.48-17.19,71-8.04,29.93-2.01,59.07,9.94,87,2.96,6.93,7.22,23.59,15.42,25Z"/>
  </g>
</svg>