<svg data-name="Capa 2" xmlns="http://www.w3.org/2000/svg" viewBox="0 0 886.47 817.96"><path d="M759.08 242c-2.59-5.34-2.72-11.4-4.7-17-3.72-10.56-9.82-20.69-11.12-32-.84-7.32 5.11-15.2 2.65-22-2.6-7.18-10.74-13.01-15.41-19-11.63-14.92-21.67-31.79-35.44-44.91-8-7.62-18.21-14.44-28.98-17.33-9.41-2.52-19.45-2.66-29-4.77-10.97-2.43-21.77-6.69-32-11.29-22.52-10.12-44.27-22.82-68-29.97-8.38-2.52-17.33-4.31-26-5.43-3.97-.52-8.12.19-12-.93-13.13-3.77-18.87-16.3-34-15.27-19.55 1.33-37.36 8.12-55 16.22-8.85 4.06-18.22 11.09-28 12.48-11.79 1.68-18.45-8.1-27-14.3-7.61-5.52-16.73-7.34-26-6.2-9.3 1.14-16.57 5.62-25 9.29-13.16 5.72-27.06 10.31-39 18.45-13.64 9.3-24.58 21.52-39 29.96-6.82 3.99-14.35 7.56-22 9.62-8.39 2.27-16.94 3.07-23.91 8.92-8.68 7.29-5.42 19.98-14.14 26.92-4.82 3.83-10.35 4.7-15.96 6.65-3.81 1.32-7.15 3.71-11 4.91-6.19 1.94-13.56 2.79-20 3.7-12.63 1.79-27.9 3.71-36.48 14.3-15.01 18.52-14.7 45.25-25.32 65.98-3.66 7.15-13.6 16.2-10.3 25 5.86 15.62 25.58 1.58 35.1-.3 4.9-.97 8.43 3.71 7.08 8.3-2.04 6.9-9.41 13.07-13.41 19-9.14 13.56-16.74 28.12-26.88 41-6.07 7.71-15.34 13.64-20.31 22-2.27 3.83-2.28 7.77-3.15 12-1.24 6.03-2.81 12.14-4.68 18-4.81 15.07-10.29 29.91-15 45-3.75 12.01-7.28 25.36-5.04 38 3.8 21.52 18.7 38.22 24.38 59 2.37-3.47 2.38-7.94 3.37-12 2.2-9.03 4.32-18.03 6.78-27 6.07-22.14 16.21-44.01 31.85-61 1.14 4.27 3.02 8.5 2.87 13-.4 11.36-6.82 22.71-8.57 34-3.94 25.45-3.9 52.03 2.85 77 3.17 11.73 6.85 25.23 14.38 35 9.62 12.48 23.64 20.75 32.37 34 2.2 3.34 5.23 7.21 6.51 11 1.91 5.65 1.32 12.11 3.26 18 3.28 9.95 8.73 18.96 13.91 28 6.04 10.54 8.75 20.78 12.66 32 3.12 8.93 10.51 17.01 9.65 27-.34 3.95-2.4 7.41-3.89 11 11.6 0 20.72 5.04 29 13.04 7.76 7.5 12.63 18.91 25 12.96-5.01-18.37-13.24-35.97-15.71-55-2.29-17.61-.29-36.21-.29-54 15.99 14.2 19.66 36.71 28.81 55 8.88 17.76 24.88 29.97 37.27 45 5.44 6.6 8.79 17.13 15.14 22.57 6.3 5.4 12.19-.38 17.79-3.53 5.37-3.02 11.12-3.85 17-1.8 14.19 4.95 23.36 18.3 37 24.45 17.64 7.95 37.48 7.25 56 11.55 6.49 1.5 12.64 3.95 19 5.86 2.59.78 5.44.67 7.96 1.64 2.92 1.12 4.85 3.68 8.08 4.1 11.41 1.48 20.35-10.59 31.96-10.84 3.84-11.25 17.12-9.99 27-11.28 16.97-2.21 33.98-3.93 51-5.55 8.82-.84 17.79 1.23 26-3.08 3.11-1.63 14.36-6.25 14.36-10.21 0-7.46-14.02-9.86-7.1-18.77.74-.96 1.78-1.69 2.75-2.4 1.15-.85 2.59-1.45 3.98-1.72 5.91-1.15 13.01 2.5 19 2.92 12.63.89 25.6-1.48 38 1.85 11.38 3.05 24.53 11.14 35.91 3.13 5.06-3.56 6.75-9.25 10.56-13.79 5.78-6.89 19.75-8.92 15.88-21.09-.62-1.96-1.76-3.77-3.56-4.84-5.41-3.21-15.63.07-21.79-.2-2.48-.11-6.79-.6-6.79-4 0-3.95 5.98-5.16 8.79-6.21 11.08-4.16 20.92-8.56 31-14.77v-2c-8.39-4.7-16.98-1.56-26-.27-17.02 2.43-33.76 6.66-48 16.71-11.02 7.77-18.88 18.64-31 25.07-17.38 9.22-36.98 9.28-56 10.58-21.22 1.45-42.85 4.84-64 .91 19.09-8.46 40.92-13.42 61-19.14 6.06-1.72 13.26-2.09 19-4.56 5.36-2.31 7.78-8.04 11.33-12.3 5.73-6.87 12.65-13.15 20.67-17.19 8.36-4.21 17.77-7.11 27-8.53 7.63-1.18 15.72-.95 23-3.74 12.85-4.93 25.74-11.34 37-19.25 9.2-6.47 17.42-14.27 27-20.21 6.37-3.95 13.68-7.65 21-9.39 7.03-1.67 14.2-.99 19.96-6.01 5.26-4.58 5.18-9.55 7.14-15.67 1.91-5.97 5.07-11.25 9.35-15.83 8.24-8.84 19.32-14.05 28.56-21.63 11.28-9.26 21.07-23.65 25.64-37.54 5.6-16.99 1.82-32.84.45-50-2.78-34.53-5.5-69.38-18.09-102 15.37 15.7 27.74 36.41 32.58 58 4.27 19.08 3.21 38.87 7.44 58 1.04 4.68 2.32 11.01 5.5 14.74 2.6 3.05 6.41 4.52 8.31 8.26 2.18 4.28 1.18 10.33 1.18 14.99 5.38-5.32 8.23-13.87 10.41-21 2.86-9.32 5.58-18.42 7.39-28 2.32-12.23 5.26-24.55 6.11-37 2.26-32.95-3.57-66.1-14.86-97-5.06-13.86-13.64-29.15-12.35-44 .26-3.04-.5-8.79-4.7-8.79-3.19 0-5.01 4.22-5.61 6.79-1.76 7.68 1.9 15.12 4.74 22 8 19.35 14.09 39.34 17.54 60 1.21 7.3.8 14.7 1.74 22 .85 6.49.91 16.65-.85 22.99-.75 2.69-2.67 5.16-5.58 5.58-8.44 1.23-9.5-12.1-10.86-17.57-5.18-20.75-12.28-41.18-20.27-61-7.65-18.97-14.84-40.68-17.58-61-.84-6.27-2.2-12.66-2.28-19-.09-7.39 1.29-16-1.48-23-3.65-9.2-12.31-13.42-17.96-21-6.35-8.5-7.26-19.64-11.82-29-2.51-5.15-8.37-10.42-9.38-16-1.5-8.3 7.37-11.33 12.55-15.22 5.19-3.9 6.86-9.46 5.88-15.78-.97-6.2-5.79-11.85-9.09-17-6.44-10.03-13.63-20.83-14.69-33-18.64 3.64-29.42-15.37-38.76-28-2.52-3.4-10.78-9.25-9.63-13.96.76-3.12 4.54-4.99 7.39-5.65 7.51-1.73 13.19.39 20-4.39-6.88-8.51-17.96-15.23-27-21.33-21.31-14.37-43.65-26.57-68-34.98-8.24-2.83-17.22-5.74-26-5.68-7.55.06-11.4 3.01-9.47 10.99 2.38 9.8 16.98 17.07 25.47 21.09 3.59 1.7 9.04 2.47 11.29 6.13 4.69 7.63-13.37 11.52-7.68 19.6 4.2 5.97 12.04 6.11 18.39 7.7 7.81 1.95 16.11 5.61 23 9.74 20.02 12.01 35.31 32.32 49.1 50.74 25.96 34.67 16.81 75.98 21.9 116Z" style="fill:#208d45" data-name="Capa 1"/></svg>